<svg width="239" height="53" viewBox="0 0 239 53" fill="none" xmlns="http://www.w3.org/2000/svg">
<path d="M97.3711 20.0889V18.0889H95.3711V20.0889H97.3711ZM99.1201 20.0889H101.12V18.0889H99.1201V20.0889ZM99.1201 31.4619H97.1201V33.4619H99.1201V31.4619ZM105.659 31.4619H107.659V29.4619H105.659V31.4619ZM105.659 33V35H107.659V33H105.659ZM97.3711 33H95.3711V35H97.3711V33ZM97.3711 22.0889H99.1201V18.0889H97.3711V22.0889ZM97.1201 20.0889V31.4619H101.12V20.0889H97.1201ZM99.1201 33.4619H105.659V29.4619H99.1201V33.4619ZM103.659 31.4619V33H107.659V31.4619H103.659ZM105.659 31H97.3711V35H105.659V31ZM99.3711 33V20.0889H95.3711V33H99.3711ZM113.042 23.8506L112.141 25.6361L112.148 25.6395L112.154 25.6428L113.042 23.8506ZM114.475 25.0635L112.804 26.1638L112.811 26.1729L114.475 25.0635ZM115.107 26.7246L113.135 27.0534L113.142 27.1006L113.153 27.1473L115.107 26.7246ZM115.248 28.7988V30.7988H117.248V28.7988H115.248ZM108.349 28.7988V26.7988H106.286L106.35 28.8601L108.349 28.7988ZM109.025 31.1016L107.408 32.2779L107.414 32.2857L109.025 31.1016ZM112.963 31.1455L114.447 32.4861L114.452 32.4802L114.458 32.4742L112.963 31.1455ZM113.561 30.0469V28.0469H112.046L111.635 29.5046L113.561 30.0469ZM115.116 30.0469L117.102 30.2825L117.368 28.0469H115.116V30.0469ZM114.703 31.207L112.949 30.246L112.945 30.2545L114.703 31.207ZM113.93 32.2441L112.561 30.786L112.547 30.7992L112.533 30.8126L113.93 32.2441ZM112.146 33.1934L111.695 31.2448L111.681 31.248L111.667 31.2513L112.146 33.1934ZM107.874 32.0596L106.426 33.4386L106.43 33.4436L107.874 32.0596ZM113.622 27.542V29.542H115.819L115.613 27.3548L113.622 27.542ZM113.174 25.8984L111.436 26.8878L111.437 26.8907L113.174 25.8984ZM109.175 25.5469L110.629 26.9197L110.637 26.9115L109.175 25.5469ZM108.393 27.542L106.394 27.4696L106.319 29.542H108.393V27.542ZM111.1 25.376C111.438 25.376 111.779 25.4533 112.141 25.6361L113.943 22.0651C113.051 21.6151 112.097 21.376 111.1 21.376V25.376ZM112.154 25.6428C112.519 25.8235 112.703 26.0093 112.804 26.1638L116.145 23.9632C115.59 23.1216 114.819 22.4987 113.93 22.0584L112.154 25.6428ZM112.811 26.1729C112.951 26.3843 113.07 26.6648 113.135 27.0534L117.08 26.3958C116.934 25.5188 116.631 24.6919 116.139 23.9541L112.811 26.1729ZM113.153 27.1473C113.198 27.3588 113.248 27.8689 113.248 28.7988H117.248C117.248 27.8303 117.204 26.9576 117.062 26.3019L113.153 27.1473ZM115.248 26.7988H108.349V30.7988H115.248V26.7988ZM106.35 28.8601C106.387 30.0857 106.683 31.281 107.408 32.2779L110.643 29.9252C110.524 29.762 110.369 29.4221 110.348 28.7375L106.35 28.8601ZM107.414 32.2857C108.304 33.497 109.636 33.9629 110.985 33.9629V29.9629C110.755 29.9629 110.656 29.9253 110.636 29.9166C110.627 29.9124 110.629 29.9122 110.636 29.9175C110.642 29.9228 110.643 29.925 110.637 29.9174L107.414 32.2857ZM110.985 33.9629C112.299 33.9629 113.526 33.5058 114.447 32.4861L111.479 29.8049C111.415 29.8751 111.324 29.9629 110.985 29.9629V33.9629ZM114.458 32.4742C114.944 31.9268 115.288 31.2902 115.486 30.5892L111.635 29.5046C111.599 29.6356 111.544 29.7314 111.468 29.8168L114.458 32.4742ZM113.561 32.0469H115.116V28.0469H113.561V32.0469ZM113.13 29.8112C113.13 29.8111 113.129 29.8204 113.124 29.8398C113.12 29.8592 113.111 29.8876 113.098 29.9253C113.071 30.0021 113.025 30.1084 112.949 30.246L116.457 32.1681C116.769 31.5992 117.022 30.9627 117.102 30.2825L113.13 29.8112ZM112.945 30.2545C112.797 30.5277 112.662 30.691 112.561 30.786L115.299 33.7023C115.772 33.2582 116.153 32.7301 116.462 32.1596L112.945 30.2545ZM112.533 30.8126C112.337 31.0043 112.078 31.1561 111.695 31.2448L112.596 35.1419C113.631 34.9025 114.562 34.4215 115.326 33.6757L112.533 30.8126ZM111.667 31.2513C111.473 31.2991 111.207 31.334 110.854 31.334V35.334C111.46 35.334 112.056 35.2751 112.624 35.1354L111.667 31.2513ZM110.854 31.334C110.229 31.334 109.757 31.1336 109.318 30.6755L106.43 33.4436C107.62 34.6848 109.134 35.334 110.854 35.334V31.334ZM109.323 30.6805C108.958 30.2981 108.652 29.6546 108.652 28.4736H104.652C104.652 30.363 105.161 32.1101 106.426 33.4386L109.323 30.6805ZM108.652 28.4736C108.652 27.3387 108.951 26.6103 109.392 26.1034L106.374 23.4787C105.174 24.8584 104.652 26.5851 104.652 28.4736H108.652ZM109.392 26.1034C109.808 25.6254 110.315 25.376 111.1 25.376V21.376C109.235 21.376 107.599 22.0699 106.374 23.4787L109.392 26.1034ZM115.613 27.3548C115.533 26.5051 115.335 25.6498 114.91 24.9062L111.437 26.8907C111.481 26.9674 111.582 27.2078 111.631 27.7292L115.613 27.3548ZM114.912 24.909C114.061 23.4136 112.601 22.7559 111.003 22.7559V26.7559C111.262 26.7559 111.361 26.8041 111.374 26.8113C111.382 26.8155 111.385 26.8179 111.389 26.8218C111.394 26.8263 111.411 26.8442 111.436 26.8878L114.912 24.909ZM111.003 22.7559C109.727 22.7559 108.586 23.2463 107.713 24.1822L110.637 26.9115C110.748 26.7928 110.826 26.7559 111.003 26.7559V22.7559ZM107.72 24.1741C106.852 25.0943 106.438 26.2425 106.394 27.4696L110.391 27.6144C110.405 27.2243 110.513 27.0425 110.629 26.9196L107.72 24.1741ZM108.393 29.542H113.622V25.542H108.393V29.542ZM121.717 31.585L120.842 29.7866L120.83 29.7921L121.717 31.585ZM123.035 28.21H125.035V24.5666L121.961 26.5226L123.035 28.21ZM121.392 28.6934L121.153 26.7076L121.145 26.7086L121.137 26.7097L121.392 28.6934ZM120.434 28.8164L120.179 26.8327L120.171 26.8338L120.434 28.8164ZM119.142 29.1768L120.127 30.9171L120.134 30.9132L119.142 29.1768ZM122.244 27.2959L122.493 29.2804L122.5 29.2795L122.244 27.2959ZM122.974 26.8389L121.185 25.9444L121.177 25.9608L121.169 25.9774L122.974 26.8389ZM122.499 25.0635L121.414 26.7433L121.429 26.753L121.444 26.7624L122.499 25.0635ZM119.098 25.3623L120.67 26.598L120.677 26.5887L119.098 25.3623ZM118.72 26.4609V28.4609H120.493L120.705 26.7002L118.72 26.4609ZM117.243 26.4609L115.244 26.4104L115.192 28.4609H117.243V26.4609ZM118.368 24.0439L119.429 25.7392L119.433 25.7369L118.368 24.0439ZM123.589 23.9912L124.637 22.2879L124.631 22.2839L123.589 23.9912ZM124.714 31.7783L123.035 32.8648L123.057 32.8987L123.08 32.9317L124.714 31.7783ZM125.382 31.9189L125.515 33.9145L125.581 33.9101L125.646 33.9014L125.382 31.9189ZM125.663 31.875H127.663V29.4912L125.316 29.9054L125.663 31.875ZM125.663 33.0439L126.213 34.967L127.663 34.5525V33.0439H125.663ZM123.387 32.6221L121.693 33.6864L121.699 33.6958L123.387 32.6221ZM123.114 31.752L125.095 31.4734L124.429 26.7366L121.525 30.5379L123.114 31.752ZM117.586 32.5254L116.195 33.9623L116.203 33.9699L116.21 33.9773L117.586 32.5254ZM119.722 27.6123L119.473 25.6279L119.472 25.628L119.722 27.6123ZM116.412 30.4951C116.412 31.5121 116.82 32.4718 117.674 33.1459L120.152 30.0064C120.214 30.0548 120.294 30.1426 120.352 30.2672C120.408 30.3875 120.412 30.4769 120.412 30.4951H116.412ZM117.674 33.1459C118.388 33.7096 119.228 33.9717 120.1 33.9717V29.9717C120.082 29.9717 120.074 29.9704 120.074 29.9705C120.075 29.9705 120.081 29.9717 120.093 29.9754C120.104 29.9792 120.116 29.9845 120.128 29.991C120.14 29.9975 120.148 30.0033 120.152 30.0064L117.674 33.1459ZM120.1 33.9717C120.978 33.9717 121.819 33.7656 122.603 33.3778L120.83 29.7921C120.572 29.92 120.335 29.9717 120.1 29.9717V33.9717ZM122.592 33.3833C123.306 33.036 123.947 32.5229 124.4 31.8022C124.852 31.0809 125.035 30.2794 125.035 29.4844H121.035C121.035 29.577 121.025 29.6305 121.018 29.6546C121.013 29.6767 121.009 29.6803 121.012 29.6758C121.024 29.6553 121.007 29.7062 120.842 29.7866L122.592 33.3833ZM125.035 29.4844V28.21H121.035V29.4844H125.035ZM121.961 26.5226C121.979 26.5113 121.976 26.5157 121.942 26.5298C121.908 26.5437 121.852 26.5638 121.768 26.5863L122.808 30.4488C123.24 30.3324 123.694 30.1616 124.109 29.8973L121.961 26.5226ZM121.768 26.5863C121.55 26.6452 121.345 26.6846 121.153 26.7076L121.63 30.6791C122.024 30.6318 122.417 30.554 122.808 30.4488L121.768 26.5863ZM121.137 26.7097L120.179 26.8327L120.688 30.8001L121.646 30.6771L121.137 26.7097ZM120.171 26.8338C119.503 26.9223 118.77 27.0854 118.149 27.4403L120.134 30.9132C120.094 30.936 120.109 30.9203 120.217 30.8901C120.321 30.8612 120.477 30.8282 120.697 30.799L120.171 26.8338ZM118.156 27.4364C116.984 28.1002 116.412 29.2415 116.412 30.4951H120.412C120.412 30.464 120.417 30.5502 120.344 30.6812C120.268 30.82 120.168 30.894 120.127 30.9171L118.156 27.4364ZM122.5 29.2795C123.322 29.1734 124.281 28.7435 124.779 27.7003L121.169 25.9774C121.271 25.762 121.438 25.5761 121.637 25.4516C121.818 25.3383 121.96 25.316 121.988 25.3123L122.5 29.2795ZM124.762 27.7333C125.035 27.1874 125.079 26.6227 125.079 26.2324H121.079C121.079 26.28 121.076 26.2778 121.082 26.2391C121.089 26.2034 121.111 26.0919 121.185 25.9444L124.762 27.7333ZM125.079 26.2324C125.079 25.1507 124.645 24.0419 123.554 23.3646L121.444 26.7624C121.337 26.6958 121.219 26.5792 121.143 26.4249C121.073 26.2853 121.079 26.1991 121.079 26.2324H125.079ZM123.584 23.3836C122.744 22.8403 121.752 22.6943 120.855 22.6943V26.6943C121.103 26.6943 121.267 26.7162 121.364 26.738C121.461 26.7597 121.462 26.7746 121.414 26.7433L123.584 23.3836ZM120.855 22.6943C119.711 22.6943 118.394 23.007 117.518 24.1359L120.677 26.5887C120.644 26.6322 120.605 26.6685 120.567 26.6955C120.55 26.7082 120.534 26.7171 120.523 26.723C120.513 26.7287 120.507 26.731 120.507 26.7309C120.508 26.7305 120.534 26.721 120.592 26.7117C120.651 26.7024 120.738 26.6943 120.855 26.6943V22.6943ZM117.525 24.1267C117.012 24.7801 116.814 25.5596 116.734 26.2217L120.705 26.7002C120.713 26.633 120.723 26.5808 120.731 26.5419C120.739 26.5029 120.746 26.4806 120.749 26.4721C120.756 26.4522 120.74 26.5091 120.67 26.5979L117.525 24.1267ZM118.72 24.4609H117.243V28.4609H118.72V24.4609ZM119.243 26.5114C119.252 26.1257 119.318 25.9208 119.36 25.8305C119.392 25.7615 119.412 25.7501 119.429 25.7392L117.307 22.3487C115.822 23.2785 115.283 24.8487 115.244 26.4104L119.243 26.5114ZM119.433 25.7369C119.806 25.5026 120.269 25.3584 120.891 25.3584V21.3584C119.603 21.3584 118.384 21.6712 117.303 22.351L119.433 25.7369ZM120.891 25.3584C121.76 25.3584 122.264 25.526 122.547 25.6985L124.631 22.2839C123.53 21.6127 122.236 21.3584 120.891 21.3584V25.3584ZM122.541 25.6945C122.577 25.7171 122.591 25.7311 122.592 25.732C122.592 25.7321 122.589 25.7287 122.587 25.7257C122.582 25.7156 122.617 25.7722 122.617 25.96H126.617C126.617 24.4632 125.986 23.1178 124.637 22.2879L122.541 25.6945ZM122.617 25.96V31.3828H126.617V25.96H122.617ZM122.617 31.3828C122.617 31.79 122.695 32.3398 123.035 32.8648L126.393 30.6918C126.604 31.0176 126.617 31.3037 126.617 31.3828H122.617ZM123.08 32.9317C123.739 33.8655 124.769 33.9277 125.145 33.9277V29.9277C125.172 29.9277 125.322 29.9287 125.53 30.0009C125.755 30.0789 126.088 30.2569 126.348 30.625L123.08 32.9317ZM125.145 33.9277C125.269 33.9277 125.393 33.9226 125.515 33.9145L125.249 29.9234C125.195 29.927 125.161 29.9277 125.145 29.9277V33.9277ZM125.646 33.9014C125.765 33.8855 125.887 33.8664 126.011 33.8446L125.316 29.9054C125.24 29.9188 125.174 29.929 125.118 29.9365L125.646 33.9014ZM123.663 31.875V33.0439H127.663V31.875H123.663ZM125.114 31.1209C125.012 31.1499 124.936 31.1697 124.882 31.1824C124.823 31.1961 124.81 31.1969 124.83 31.1941L125.371 35.1574C125.646 35.12 125.945 35.0436 126.213 34.967L125.114 31.1209ZM124.83 31.1941C124.838 31.1931 124.821 31.1956 124.772 31.1981C124.725 31.2004 124.66 31.2021 124.573 31.2021V35.2021C124.832 35.2021 125.111 35.1928 125.371 35.1574L124.83 31.1941ZM124.573 31.2021C124.534 31.2021 124.613 31.1953 124.746 31.2604C124.894 31.3324 125.008 31.4442 125.074 31.5483L121.699 33.6958C122.387 34.7756 123.495 35.2021 124.573 35.2021V31.2021ZM125.08 31.5577C125.104 31.5963 125.118 31.6255 125.125 31.6411C125.132 31.6566 125.133 31.6615 125.131 31.6531C125.128 31.6447 125.123 31.626 125.116 31.5953C125.109 31.5646 125.102 31.5244 125.095 31.4734L121.134 32.0305C121.206 32.544 121.354 33.1461 121.693 33.6864L125.08 31.5577ZM121.525 30.5379C121.426 30.6678 121.221 30.8609 120.81 31.0722L122.641 34.629C123.437 34.2192 124.158 33.6798 124.704 32.966L121.525 30.5379ZM120.81 31.0722C120.51 31.2269 120.162 31.3164 119.73 31.3164V35.3164C120.752 35.3164 121.734 35.0953 122.641 34.629L120.81 31.0722ZM119.73 31.3164C119.293 31.3164 119.095 31.1996 118.961 31.0735L116.21 33.9773C117.191 34.9059 118.422 35.3164 119.73 35.3164V31.3164ZM118.977 31.0884C118.832 30.9484 118.76 30.8095 118.76 30.5303H114.76C114.76 31.8448 115.238 33.036 116.195 33.9623L118.977 31.0884ZM118.76 30.5303C118.76 30.1048 118.872 30.0246 118.9 30.0001L116.254 26.9999C115.192 27.9363 114.76 29.2096 114.76 30.5303H118.76ZM118.9 30.0001C119.081 29.8401 119.393 29.6694 119.971 29.5967L119.472 25.628C118.281 25.7779 117.163 26.1989 116.254 26.9999L118.9 30.0001ZM119.971 29.5968L122.493 29.2803L121.995 25.3114L119.473 25.6279L119.971 29.5968ZM127.263 23.5869V21.5869H125.263V23.5869H127.263ZM128.766 23.5869H130.766V21.5869H128.766V23.5869ZM128.766 25.2129H126.766L130.63 25.9378L128.766 25.2129ZM129.671 24.0615L131.04 25.5195L131.049 25.5106L129.671 24.0615ZM131.842 23.4199H133.842V21.6161L132.048 21.4305L131.842 23.4199ZM131.842 25.0898L131.473 27.0556L133.842 27.4997V25.0898H131.842ZM131.578 25.0547L131.425 27.0488L131.436 27.0496L131.578 25.0547ZM129.486 25.8193L131.018 27.1049L131.026 27.0963L129.486 25.8193ZM128.845 33V35H130.845V33H128.845ZM127.263 33H125.263V35H127.263V33ZM127.263 25.5869H128.766V21.5869H127.263V25.5869ZM126.766 23.5869V25.2129H130.766V23.5869H126.766ZM130.63 25.9378C130.596 26.0246 130.579 26.0224 130.656 25.9239C130.728 25.8328 130.849 25.6984 131.04 25.5195L128.302 22.6036C127.771 23.102 127.193 23.7384 126.902 24.488L130.63 25.9378ZM131.049 25.5106C131.182 25.3848 131.25 25.376 131.332 25.376V21.376C130.16 21.376 129.121 21.8242 128.292 22.6124L131.049 25.5106ZM131.332 25.376C131.319 25.376 131.309 25.3758 131.301 25.3757C131.294 25.3755 131.288 25.3753 131.284 25.3752C131.276 25.3749 131.272 25.3746 131.274 25.3747C131.275 25.3748 131.279 25.375 131.287 25.3756C131.294 25.3761 131.303 25.3769 131.315 25.3779L131.648 21.3917C131.577 21.3858 131.453 21.376 131.332 21.376V25.376ZM131.315 25.3779C131.364 25.3819 131.466 25.3917 131.636 25.4093L132.048 21.4305C131.878 21.413 131.74 21.3994 131.648 21.3917L131.315 25.3779ZM129.842 23.4199V25.0898H133.842V23.4199H129.842ZM132.21 23.1241C132.053 23.0947 131.889 23.0718 131.721 23.0598L131.436 27.0496C131.431 27.0493 131.443 27.0499 131.473 27.0556L132.21 23.1241ZM131.732 23.0606C131.594 23.05 131.457 23.0459 131.323 23.0459V27.0459C131.377 27.0459 131.409 27.0476 131.425 27.0488L131.732 23.0606ZM131.323 23.0459C130.056 23.0459 128.828 23.4806 127.947 24.5424L131.026 27.0963C131.034 27.0859 131.037 27.0842 131.035 27.0858C131.033 27.0875 131.034 27.0862 131.042 27.0825C131.059 27.0755 131.139 27.0459 131.323 27.0459V23.0459ZM127.954 24.5338C127.223 25.4052 126.845 26.4497 126.845 27.5859H130.845C130.845 27.3862 130.894 27.253 131.018 27.1049L127.954 24.5338ZM126.845 27.5859V33H130.845V27.5859H126.845ZM128.845 31H127.263V35H128.845V31ZM129.263 33V23.5869H125.263V33H129.263ZM133.213 23.5869V21.5869H131.213V23.5869H133.213ZM134.716 23.5869H136.716V21.5869H134.716V23.5869ZM134.716 24.9229H132.716V30.5776L136.271 26.1803L134.716 24.9229ZM140.499 24.7734L138.712 25.6724L138.714 25.6761L140.499 24.7734ZM140.886 33V35H142.886V33H140.886ZM139.277 33H137.277V35H139.277V33ZM139.022 25.6787L137.219 26.5442L137.222 26.549L139.022 25.6787ZM136.57 24.9141L137.14 26.8311L137.158 26.826L137.175 26.8205L136.57 24.9141ZM135.428 25.6875L136.952 26.982L136.953 26.9815L135.428 25.6875ZM134.909 26.6543L132.967 26.1772L132.964 26.1896L132.961 26.202L134.909 26.6543ZM134.795 33V35H136.795V33H134.795ZM133.213 33H131.213V35H133.213V33ZM133.213 25.5869H134.716V21.5869H133.213V25.5869ZM132.716 23.5869V24.9229H136.716V23.5869H132.716ZM136.271 26.1803C136.581 25.797 136.832 25.6188 137 25.5377L135.262 21.9349C134.434 22.3343 133.741 22.9472 133.161 23.6654L136.271 26.1803ZM137 25.5377C137.2 25.4411 137.452 25.376 137.792 25.376V21.376C136.913 21.376 136.058 21.5511 135.262 21.9349L137 25.5377ZM137.792 25.376C138.238 25.376 138.461 25.4548 138.553 25.5025C138.619 25.5362 138.662 25.5728 138.712 25.6724L142.286 23.8745C141.377 22.069 139.632 21.376 137.792 21.376V25.376ZM138.714 25.6761C138.766 25.7792 138.886 26.1439 138.886 26.9619H142.886C142.886 25.8815 142.747 24.7872 142.284 23.8708L138.714 25.6761ZM138.886 26.9619V33H142.886V26.9619H138.886ZM140.886 31H139.277V35H140.886V31ZM141.277 33V27.0674H137.277V33H141.277ZM141.277 27.0674C141.277 26.3223 141.171 25.5284 140.823 24.8084L137.222 26.549C137.215 26.5342 137.23 26.5608 137.246 26.6506C137.263 26.7404 137.277 26.876 137.277 27.0674H141.277ZM140.826 24.8132C140.529 24.196 140.068 23.6544 139.426 23.2855C138.799 22.9255 138.124 22.7998 137.493 22.7998V26.7998C137.601 26.7998 137.549 26.8206 137.433 26.7536C137.376 26.7209 137.324 26.6785 137.282 26.6321C137.242 26.5871 137.223 26.5526 137.219 26.5442L140.826 24.8132ZM137.493 22.7998C137.003 22.7998 136.472 22.8471 135.966 23.0076L137.175 26.8205C137.155 26.8268 137.168 26.8205 137.227 26.8132C137.284 26.8061 137.371 26.7998 137.493 26.7998V22.7998ZM136 22.997C135.151 23.2496 134.451 23.7479 133.903 24.3935L136.953 26.9815C137.061 26.8537 137.123 26.8363 137.14 26.8311L136 22.997ZM133.903 24.393C133.476 24.8966 133.135 25.4913 132.967 26.1772L136.851 27.1313C136.847 27.1493 136.853 27.0995 136.952 26.982L133.903 24.393ZM132.961 26.202C132.833 26.7532 132.795 27.4048 132.795 28.0693H136.795C136.795 27.5034 136.833 27.2117 136.857 27.1066L132.961 26.202ZM132.795 28.0693V33H136.795V28.0693H132.795ZM134.795 31H133.213V35H134.795V31ZM135.213 33V23.5869H131.213V33H135.213Z" fill="url(#paint0_linear_13_167)"/>
<rect x="1" y="1" width="237" height="51" stroke="url(#paint1_linear_13_167)" stroke-width="2"/>
<defs>
<linearGradient id="paint0_linear_13_167" x1="96" y1="16" x2="144.721" y2="21.3623" gradientUnits="userSpaceOnUse">
<stop stop-color="#FC4060"/>
<stop offset="1" stop-color="#8061FD"/>
</linearGradient>
<linearGradient id="paint1_linear_13_167" x1="0" y1="0" x2="239" y2="53" gradientUnits="userSpaceOnUse">
<stop stop-color="#FC4060"/>
<stop offset="1" stop-color="#8061FD"/>
</linearGradient>
</defs>
</svg>
